# xmcd
#
# Track frame offsets:
#       150
#       16043
#       29117
#       41604
#       53853
#       70020
#       81804
#       93930
#       109529
#       124762
#       146528
#       159477
#
# Disc length: 2283 seconds
#
# Revision: 2
# Processed by: cddbd v1.5.2PL0 Copyright (c) Steve Scherf et al.
# Submitted via: FreeDbEdit v0.1
#
DISCID=9408e90c
DTITLE=Various Artist - A Country Christmas
DYEAR=2001
DGENRE=Country
TTITLE0=Kenny Rogers - Have Yourself a Merry Little Christmas
TTITLE1=Bryan White - I'll Be Home for Christmas
TTITLE2=Travis Tritt - Christmas in My Hometown
TTITLE3=Randy Travis - Meet Me Under the Mistletoe
TTITLE4=The Nitty Gritty Dirt Band - Colorado Christmas
TTITLE5=Johnny Cash - The Little Drummer Boy
TTITLE6=Johnny Lee - Please Come Home for Christmas
TTITLE7=Glen Campbell - Brightest and Best
TTITLE8=Highway 101 - It Came Upon a Midnight Clear
TTITLE9=B. J. Thomas - Tennessee Christmas
TTITLE10=The Forester Sisters - The First Noel
TTITLE11=Michael Martin Murphey - Two Step 'Round the Christmas Tree
EXTD=
EXTT0=
EXTT1=
EXTT2=
EXTT3=
EXTT4=
EXTT5=
EXTT6=
EXTT7=
EXTT8=
EXTT9=
EXTT10=
EXTT11=
PLAYORDER=
